<?xml version="1.0" encoding="UTF-8" standalone="no"?>
<!DOCTYPE svg PUBLIC "-//W3C//DTD SVG 1.1//EN" "http://www.w3.org/Graphics/SVG/1.1/DTD/svg11.dtd">
<svg width="100%" height="100%" viewBox="0 0 715 83" version="1.1" xmlns="http://www.w3.org/2000/svg" xmlns:xlink="http://www.w3.org/1999/xlink" xml:space="preserve" xmlns:serif="http://www.serif.com/" style="fill-rule:evenodd;clip-rule:evenodd;stroke-linejoin:round;stroke-miterlimit:2;">
    <g transform="matrix(4.16667,0,0,4.16667,-158.332,-333.332)">
        <path d="M38,81.418C38,80.635 38.634,80 39.417,80C40.2,80 40.834,80.635 40.834,81.418L40.834,98.426C40.834,99.208 40.2,99.843 39.417,99.843C38.634,99.843 38,99.208 38,98.426L38,81.418Z" style="fill:rgb(35,31,32);fill-rule:nonzero;"/>
    </g>
    <g transform="matrix(4.16667,0,0,4.16667,-158.332,-333.332)">
        <path d="M38,81.418C38,80.635 38.634,80 39.417,80C40.2,80 40.834,80.635 40.834,81.418L40.834,98.426C40.834,99.208 40.2,99.843 39.417,99.843C38.634,99.843 38,99.208 38,98.426L38,81.418Z" style="fill:none;"/>
    </g>
    <g transform="matrix(4.16667,0,0,4.16667,-158.332,-333.332)">
        <path d="M63.511,98.426C63.511,99.208 62.877,99.843 62.094,99.843C61.607,99.843 61.178,99.598 60.923,99.224L46.503,84.804L46.503,98.426C46.503,99.208 45.869,99.843 45.086,99.843C44.303,99.843 43.669,99.208 43.669,98.426L43.669,81.418C43.669,80.635 44.303,80 45.086,80C45.463,80 45.807,80.148 46.061,80.389L60.677,94.969L60.677,81.418C60.677,80.635 61.311,80 62.094,80C62.877,80 63.511,80.635 63.511,81.418L63.511,98.426Z" style="fill:rgb(35,31,32);fill-rule:nonzero;"/>
    </g>
    <g transform="matrix(4.16667,0,0,4.16667,-158.332,-333.332)">
        <path d="M63.511,98.426C63.511,99.208 62.877,99.843 62.094,99.843C61.607,99.843 61.178,99.598 60.923,99.224L46.503,84.804L46.503,98.426C46.503,99.208 45.869,99.843 45.086,99.843C44.303,99.843 43.669,99.208 43.669,98.426L43.669,81.418C43.669,80.635 44.303,80 45.086,80C45.463,80 45.807,80.148 46.061,80.389L60.677,94.969L60.677,81.418C60.677,80.635 61.311,80 62.094,80C62.877,80 63.511,80.635 63.511,81.418L63.511,98.426Z" style="fill:none;"/>
    </g>
    <g transform="matrix(4.16667,0,0,4.16667,-158.332,-333.332)">
        <path d="M76.267,82.835L76.267,98.426C76.267,99.208 75.633,99.843 74.85,99.843C74.067,99.843 73.433,99.208 73.433,98.426L73.433,82.835L66.346,82.835C65.563,82.835 64.929,82.201 64.929,81.418C64.929,80.635 65.563,80 66.346,80L83.354,80C84.136,80 84.771,80.635 84.771,81.418C84.771,82.201 84.136,82.835 83.354,82.835L76.267,82.835Z" style="fill:rgb(35,31,32);fill-rule:nonzero;"/>
    </g>
    <g transform="matrix(4.16667,0,0,4.16667,-158.332,-333.332)">
        <path d="M76.267,82.835L76.267,98.426C76.267,99.208 75.633,99.843 74.85,99.843C74.067,99.843 73.433,99.208 73.433,98.426L73.433,82.835L66.346,82.835C65.563,82.835 64.929,82.201 64.929,81.418C64.929,80.635 65.563,80 66.346,80L83.354,80C84.136,80 84.771,80.635 84.771,81.418C84.771,82.201 84.136,82.835 83.354,82.835L76.267,82.835Z" style="fill:none;"/>
    </g>
    <g transform="matrix(4.16667,0,0,4.16667,-158.332,-333.332)">
        <path d="M110.992,88.504L122.333,88.504C123.898,88.504 125.164,87.318 125.164,85.664C125.164,84.103 123.892,82.836 122.331,82.835L110.992,82.835L110.992,88.504ZM121.442,91.339L110.992,91.339L110.992,98.426C110.992,99.208 110.357,99.843 109.575,99.843C108.792,99.843 108.157,99.208 108.157,98.426L108.157,81.417C108.157,80.635 108.792,80 109.575,80L122.331,80C125.458,80 128,82.543 128,85.67C128,88.068 126.506,90.123 124.398,90.95L127.7,97.554C127.888,97.794 128,98.097 128,98.426C128,99.208 127.365,99.843 126.583,99.843C126.03,99.843 125.552,99.527 125.318,99.067L121.428,91.347L121.442,91.339Z" style="fill:rgb(35,31,32);fill-rule:nonzero;"/>
    </g>
    <g transform="matrix(4.16667,0,0,4.16667,-158.332,-333.332)">
        <path d="M110.992,88.504L122.333,88.504C123.898,88.504 125.164,87.318 125.164,85.664C125.164,84.103 123.892,82.836 122.331,82.835L110.992,82.835L110.992,88.504ZM121.442,91.339L110.992,91.339L110.992,98.426C110.992,99.208 110.357,99.843 109.575,99.843C108.792,99.843 108.157,99.208 108.157,98.426L108.157,81.417C108.157,80.635 108.792,80 109.575,80L122.331,80C125.458,80 128,82.543 128,85.67C128,88.068 126.506,90.123 124.398,90.95L127.7,97.554C127.888,97.794 128,98.097 128,98.426C128,99.208 127.365,99.843 126.583,99.843C126.03,99.843 125.552,99.527 125.318,99.067L121.428,91.347L121.442,91.339Z" style="fill:none;"/>
    </g>
    <g transform="matrix(4.16667,0,0,4.16667,-158.332,-333.332)">
        <path d="M145.844,80.812C146.07,80.331 146.566,80 147.134,80C147.917,80 148.551,80.635 148.551,81.418C148.551,81.7 148.469,81.963 148.326,82.184L139.959,98.917C139.76,99.457 139.24,99.843 138.63,99.843C138.063,99.843 137.574,99.511 137.348,99.03L128.832,82.055C128.761,81.855 128.707,81.643 128.707,81.418C128.707,80.635 129.343,80 130.126,80C130.772,80 131.32,80.436 131.489,81.029L138.612,95.274L145.844,80.812Z" style="fill:rgb(228,124,75);fill-rule:nonzero;"/>
    </g>
    <g transform="matrix(4.16667,0,0,4.16667,-158.332,-333.332)">
        <path d="M145.844,80.812C146.07,80.331 146.566,80 147.134,80C147.917,80 148.551,80.635 148.551,81.418C148.551,81.7 148.469,81.963 148.326,82.184L139.959,98.917C139.76,99.457 139.24,99.843 138.63,99.843C138.063,99.843 137.574,99.511 137.348,99.03L128.832,82.055C128.761,81.855 128.707,81.643 128.707,81.418C128.707,80.635 129.343,80 130.126,80C130.772,80 131.32,80.436 131.489,81.029L138.612,95.274L145.844,80.812Z" style="fill:none;"/>
    </g>
    <g transform="matrix(4.16667,0,0,4.16667,-158.332,-333.332)">
        <path d="M149.968,81.418C149.968,80.635 150.603,80 151.386,80C152.168,80 152.803,80.635 152.803,81.418L152.803,98.426C152.803,99.208 152.168,99.843 151.386,99.843C150.603,99.843 149.968,99.208 149.968,98.426L149.968,81.418Z" style="fill:rgb(228,124,75);fill-rule:nonzero;"/>
    </g>
    <g transform="matrix(4.16667,0,0,4.16667,-158.332,-333.332)">
        <path d="M149.968,81.418C149.968,80.635 150.603,80 151.386,80C152.168,80 152.803,80.635 152.803,81.418L152.803,98.426C152.803,99.208 152.168,99.843 151.386,99.843C150.603,99.843 149.968,99.208 149.968,98.426L149.968,81.418Z" style="fill:none;"/>
    </g>
    <g transform="matrix(4.16667,0,0,4.16667,-158.332,-333.332)">
        <path d="M173.354,80C174.137,80 174.771,80.635 174.771,81.418C174.771,82.201 174.137,82.835 173.354,82.835L160.599,82.835C159.035,82.835 157.764,84.106 157.764,85.67C157.764,87.233 159.035,88.504 160.599,88.504L169.105,88.504C172.232,88.504 174.771,91.047 174.771,94.174C174.771,97.3 172.229,99.843 169.103,99.843L156.347,99.843C155.563,99.843 154.929,99.208 154.929,98.426C154.929,97.643 155.563,97.008 156.347,97.008L169.103,97.008C170.666,97.008 171.937,95.737 171.937,94.174C171.937,92.61 170.669,91.339 169.105,91.339L160.599,91.339C157.472,91.339 154.929,88.797 154.929,85.67C154.929,82.543 157.472,80 160.599,80L173.354,80Z" style="fill:rgb(228,124,75);fill-rule:nonzero;"/>
    </g>
    <g transform="matrix(4.16667,0,0,4.16667,-158.332,-333.332)">
        <path d="M173.354,80C174.137,80 174.771,80.635 174.771,81.418C174.771,82.201 174.137,82.835 173.354,82.835L160.599,82.835C159.035,82.835 157.764,84.106 157.764,85.67C157.764,87.233 159.035,88.504 160.599,88.504L169.105,88.504C172.232,88.504 174.771,91.047 174.771,94.174C174.771,97.3 172.229,99.843 169.103,99.843L156.347,99.843C155.563,99.843 154.929,99.208 154.929,98.426C154.929,97.643 155.563,97.008 156.347,97.008L169.103,97.008C170.666,97.008 171.937,95.737 171.937,94.174C171.937,92.61 170.669,91.339 169.105,91.339L160.599,91.339C157.472,91.339 154.929,88.797 154.929,85.67C154.929,82.543 157.472,80 160.599,80L173.354,80Z" style="fill:none;"/>
    </g>
    <g transform="matrix(4.16667,0,0,4.16667,-158.332,-333.332)">
        <path d="M193.905,80C194.688,80 195.322,80.635 195.322,81.418C195.322,82.201 194.688,82.835 193.905,82.835L186.818,82.835L186.818,98.426C186.818,99.208 186.185,99.843 185.401,99.843C184.619,99.843 183.984,99.208 183.984,98.426L183.984,82.835L176.897,82.835C176.114,82.835 175.48,82.201 175.48,81.418C175.48,80.635 176.114,80 176.897,80L193.905,80Z" style="fill:rgb(228,124,75);fill-rule:nonzero;"/>
    </g>
    <g transform="matrix(4.16667,0,0,4.16667,-158.332,-333.332)">
        <path d="M193.905,80C194.688,80 195.322,80.635 195.322,81.418C195.322,82.201 194.688,82.835 193.905,82.835L186.818,82.835L186.818,98.426C186.818,99.208 186.185,99.843 185.401,99.843C184.619,99.843 183.984,99.208 183.984,98.426L183.984,82.835L176.897,82.835C176.114,82.835 175.48,82.201 175.48,81.418C175.48,80.635 176.114,80 176.897,80L193.905,80Z" style="fill:none;"/>
    </g>
    <g transform="matrix(4.16667,0,0,4.16667,-158.332,-333.332)">
        <path d="M198.304,80.774C198.537,80.313 199.022,80 199.574,80C200.137,80 200.621,80.329 200.851,80.803L209.315,97.733C209.44,97.98 209.496,98.196 209.496,98.426C209.496,99.208 208.861,99.843 208.079,99.843C207.522,99.843 207.04,99.522 206.808,99.056L199.57,84.58L192.398,98.922C192.197,99.46 191.679,99.843 191.07,99.843C190.288,99.843 189.653,99.208 189.653,98.426C189.653,98.186 189.706,97.958 189.811,97.76L198.304,80.774ZM198.157,92.756C198.157,91.974 198.792,91.339 199.574,91.339C200.357,91.339 200.992,91.974 200.992,92.756C200.992,93.539 200.357,94.174 199.574,94.174C198.792,94.174 198.157,93.539 198.157,92.756Z" style="fill:rgb(228,124,75);fill-rule:nonzero;"/>
    </g>
    <g transform="matrix(4.16667,0,0,4.16667,-158.332,-333.332)">
        <path d="M198.304,80.774C198.537,80.313 199.022,80 199.574,80C200.137,80 200.621,80.329 200.851,80.803L209.315,97.733C209.44,97.98 209.496,98.196 209.496,98.426C209.496,99.208 208.861,99.843 208.079,99.843C207.522,99.843 207.04,99.522 206.808,99.056L199.57,84.58L192.398,98.922C192.197,99.46 191.679,99.843 191.07,99.843C190.288,99.843 189.653,99.208 189.653,98.426C189.653,98.186 189.706,97.958 189.811,97.76L198.304,80.774ZM198.157,92.756C198.157,91.974 198.792,91.339 199.574,91.339C200.357,91.339 200.992,91.974 200.992,92.756C200.992,93.539 200.357,94.174 199.574,94.174C198.792,94.174 198.157,93.539 198.157,92.756Z" style="fill:none;"/>
    </g>
    <g transform="matrix(4.16667,0,0,4.16667,-158.332,-333.332)">
        <path d="M104.614,97.008C105.397,97.008 106.031,97.643 106.031,98.426C106.031,99.208 105.397,99.843 104.614,99.843L87.606,99.843C86.823,99.843 86.189,99.208 86.189,98.426L86.189,81.418C86.189,80.635 86.823,80 87.606,80L104.614,80C105.397,80 106.031,80.635 106.031,81.418C106.031,82.201 105.397,82.835 104.614,82.835L89.023,82.835L89.023,97.008L104.614,97.008ZM93.984,89.922C93.984,89.139 94.618,88.504 95.401,88.504L98.236,88.504C99.019,88.504 99.653,89.139 99.653,89.922C99.653,90.705 99.019,91.339 98.236,91.339L95.401,91.339C94.618,91.339 93.984,90.705 93.984,89.922Z" style="fill:rgb(35,31,32);fill-rule:nonzero;"/>
    </g>
    <g transform="matrix(4.16667,0,0,4.16667,-158.332,-333.332)">
        <path d="M104.614,97.008C105.397,97.008 106.031,97.643 106.031,98.426C106.031,99.208 105.397,99.843 104.614,99.843L87.606,99.843C86.823,99.843 86.189,99.208 86.189,98.426L86.189,81.418C86.189,80.635 86.823,80 87.606,80L104.614,80C105.397,80 106.031,80.635 106.031,81.418C106.031,82.201 105.397,82.835 104.614,82.835L89.023,82.835L89.023,97.008L104.614,97.008ZM93.984,89.922C93.984,89.139 94.618,88.504 95.401,88.504L98.236,88.504C99.019,88.504 99.653,89.139 99.653,89.922C99.653,90.705 99.019,91.339 98.236,91.339L95.401,91.339C94.618,91.339 93.984,90.705 93.984,89.922Z" style="fill:none;"/>
    </g>
</svg>
